<?xml version="1.0" encoding="UTF-8"?><svg id="Capa_1" xmlns="http://www.w3.org/2000/svg" viewBox="0 0 226.772 226.772"><defs><style>.cls-1{fill:#00264d;}.cls-2{fill:#999;}</style></defs><path class="cls-1" d="M206.929,4c8.736,0,15.843,7.107,15.843,15.843v187.087c0,8.736-7.107,15.843-15.843,15.843H19.842c-8.736,0-15.843-7.107-15.843-15.843V19.842c0-8.736,7.107-15.843,15.843-15.843h187.087M206.929,0H19.842C8.884,0,0,8.884,0,19.842v187.087C0,217.888,8.884,226.772,19.842,226.772h187.087c10.959,0,19.843-8.884,19.843-19.843V19.842C226.772,8.884,217.888,0,206.929,0h0Z"/><polygon class="cls-2" points="121.645 110.779 121.645 122.783 105.127 116.091 105.127 128.496 171.929 155.573 105.127 182.649 105.127 206.563 205.132 166.048 205.132 145.098 121.645 110.779"/><polygon class="cls-1" points="121.645 110.779 121.645 98.869 54.843 71.793 121.645 44.716 121.645 20.208 21.639 61.317 21.639 82.267 105.127 116.091 105.127 103.989 121.645 110.779"/></svg>